<?xml version="1.0" encoding="iso-8859-1"?>
<!-- Generator: Adobe Illustrator 26.1.0, SVG Export Plug-In . SVG Version: 6.00 Build 0)  -->
<svg fill="#12B886" version="1.1" id="Tone" xmlns="http://www.w3.org/2000/svg" xmlns:xlink="http://www.w3.org/1999/xlink" x="0px" y="0px"
	 viewBox="0 0 50 50" style="enable-background:new 0 0 50 50;" xml:space="preserve">
<g id="Line">
</g>
<g>
	<g>
		<path d="M19.432,27.981l-0.133-11.852c-0.004-0.358,0.185-0.692,0.495-0.874l11.163-6.536c-1.746-2.138-4.34-3.412-7.128-3.412
			c-3.46,0-6.521,1.703-8.412,4.31v16.105L19.432,27.981z"/>
	</g>
	<g>
		<path d="M21.357,21.298l10.197-6.041c0.308-0.182,0.688-0.186,1-0.012l11.275,6.34c0.948-2.564,0.738-5.435-0.638-7.818
			c-1.391-2.408-3.636-4.131-6.322-4.851c-0.592-0.159-1.189-0.244-1.787-0.296l-13.776,8.066L21.357,21.298z"/>
	</g>
	<g>
		<path d="M24.256,32.989l-10.33-5.811c-0.314-0.177-0.51-0.51-0.51-0.871V13.345c-2.787,0.427-5.183,2.049-6.598,4.5
			c-1.391,2.408-1.76,5.214-1.04,7.9c0.172,0.643,0.423,1.248,0.707,1.834l13.801,7.761L24.256,32.989z"/>
	</g>
	<g>
		<path d="M31.005,31.315l-10.196,6.041c-0.157,0.093-0.333,0.14-0.51,0.14c-0.169,0-0.338-0.043-0.49-0.128L8.537,31.029
			c-0.949,2.564-0.746,5.425,0.634,7.816c1.391,2.408,3.636,4.131,6.322,4.851c0.652,0.175,1.31,0.263,1.969,0.31l13.594-8.076
			L31.005,31.315z"/>
	</g>
	<g>
		<path d="M28.106,19.625l10.33,5.81c0.314,0.178,0.51,0.511,0.51,0.872v12.944c2.758-0.424,5.188-2.04,6.599-4.482
			c1.391-2.408,1.76-5.214,1.04-7.9c-0.173-0.643-0.423-1.249-0.708-1.835l-13.8-7.761L28.106,19.625z"/>
	</g>
	<g>
		<path d="M32.931,24.634l0.133,11.851c0.004,0.356-0.183,0.688-0.489,0.87l-11.115,6.603c1.744,2.101,4.303,3.35,7.074,3.35
			c3.46,0,6.521-1.703,8.412-4.309V26.892L32.931,24.634z"/>
	</g>
</g>
<g>
	<polyline points="21.445,29.112 21.383,23.608 26.118,20.802 30.917,23.502 30.979,29.006 26.243,31.811 	"/>
</g>
</svg>